<?xml version="1.0" encoding="utf-8"?>
<!-- Generator: Adobe Illustrator 26.0.1, SVG Export Plug-In . SVG Version: 6.00 Build 0)  -->
<svg version="1.1" id="Layer_1" xmlns="http://www.w3.org/2000/svg" xmlns:xlink="http://www.w3.org/1999/xlink" x="0px" y="0px"
	 viewBox="30 25 200 55" style="enable-background:new 0 0 200 100;" xml:space="preserve">
<style type="text/css">
	.st0{fill:#FFFFFF;}
	.st1{fill:url(#SVGID_1_);}
	.st2{fill:url(#SVGID_00000146485107582260649860000005237530893524849802_);}
	.st3{fill:url(#SVGID_00000167387588881089680790000005800717113953864587_);}
	.st4{fill:url(#SVGID_00000002377737754070226850000009006695188420058554_);}
	.st5{fill:url(#SVGID_00000061445192133002792360000014275649461484809626_);}
	.st6{fill:#0BB7D3;}
</style>
<g>
	<g>
		<path class="st0" d="M49.62,47.73c-3.89,0-7.22,0.06-10.54-0.03c-1.41-0.04-2.29,0.37-2.96,1.67c-1.05,2.06-2.29,4.02-3.43,6.03
			h12.55C46.69,52.86,48.1,50.37,49.62,47.73z"/>
		<path class="st0" d="M56.8,27.34c-7.32-0.11-14.64-0.07-21.95-0.05c-0.58,0-1.48,0.04-1.7,0.4c-2.05,3.33-3.97,6.72-6.13,10.44
			c8.09,0,15.63,0.03,23.18-0.03c0.63,0,1.15,0.07,1.59,0.28l5.99-10.78C57.44,27.45,57.1,27.35,56.8,27.34z"/>
		<path class="st0" d="M50.92,61.78c-2.94,0.11-5.89,0.05-9.32,0.05c0.85-1.49,1.66-2.92,2.47-4.33H31.52
			c-0.09,0.15-0.18,0.3-0.26,0.45c-1.24,2.23-3.36,4.47-3.37,6.72c-0.01,2.15,2.26,4.28,3.37,6.5c0.63,1.26,1.48,1.55,2.78,1.54
			c7.47-0.05,14.95-0.05,22.42,0c0.72,0.01,1.28-0.11,1.75-0.4l-6.4-10.85C51.51,61.66,51.2,61.77,50.92,61.78z"/>
		<path class="st0" d="M70.62,48.72c-3.75-6.71-7.59-13.38-11.51-20c-0.26-0.43-0.78-0.86-1.33-1.12l-5.99,10.78
			c0.47,0.23,0.85,0.61,1.18,1.23c1.66,3.08,3.52,6.04,5.17,9.12c0.18,0.34,0.29,0.82,0.31,1.28h12.43
			C70.89,49.54,70.8,49.06,70.62,48.72z"/>
		<path class="st0" d="M58.45,50.02c0.01,0.37-0.04,0.73-0.18,0.99c-1.76,3.28-3.65,6.5-5.59,9.68c-0.18,0.29-0.5,0.58-0.86,0.79
			l6.4,10.85c0.39-0.24,0.73-0.6,1.03-1.15c3.74-6.63,7.61-13.19,11.33-19.83c0.2-0.35,0.3-0.84,0.31-1.34H58.45z"/>
	</g>
	<g>
		<path class="st0" d="M102.44,40.41c1.96,1.03,3.47,2.5,4.54,4.41c1.07,1.91,1.6,4.12,1.6,6.64c0,2.52-0.54,4.73-1.6,6.64
			c-1.07,1.91-2.58,3.38-4.54,4.41c-1.96,1.03-4.23,1.55-6.82,1.55H85.29v-25.2h10.33C98.21,38.86,100.49,39.38,102.44,40.41z
			 M100.73,56.89c1.3-1.34,1.94-3.16,1.94-5.44c0-1.51-0.29-2.83-0.88-3.94c-0.59-1.12-1.42-1.98-2.48-2.59
			c-1.07-0.61-2.3-0.92-3.69-0.92h-4.43v14.9h4.43C97.73,58.91,99.44,58.24,100.73,56.89z"/>
		<path class="st0" d="M130.43,46.28v17.78h-4.9l-0.36-2.12c-1.51,1.66-3.48,2.48-5.9,2.48c-1.66,0-3.13-0.39-4.41-1.17
			c-1.28-0.78-2.29-1.87-3.01-3.28c-0.72-1.4-1.08-3.01-1.08-4.81s0.36-3.4,1.08-4.81c0.72-1.4,1.72-2.5,3.01-3.28
			c1.28-0.78,2.75-1.17,4.41-1.17c1.2,0,2.3,0.21,3.31,0.63c1.01,0.42,1.87,1.03,2.59,1.82l0.36-2.09H130.43z M123.66,58.43
			c0.79-0.83,1.19-1.91,1.19-3.26s-0.4-2.43-1.19-3.26s-1.81-1.24-3.06-1.24c-1.25,0-2.26,0.42-3.04,1.26
			c-0.78,0.84-1.17,1.92-1.17,3.24c0,1.32,0.39,2.4,1.17,3.24c0.78,0.84,1.79,1.26,3.04,1.26
			C121.85,59.67,122.87,59.25,123.66,58.43z"/>
		<path class="st0" d="M135.13,43.65c-0.61-0.58-0.92-1.31-0.92-2.2c0-0.91,0.31-1.66,0.94-2.23c0.62-0.58,1.42-0.86,2.38-0.86
			s1.75,0.29,2.38,0.86c0.62,0.58,0.94,1.32,0.94,2.23c0,0.89-0.31,1.62-0.92,2.2c-0.61,0.58-1.41,0.86-2.39,0.86
			S135.74,44.22,135.13,43.65z M134.68,46.28h5.65v17.78h-5.65V46.28z"/>
		<path class="st0" d="M144.58,38.86h5.65v25.2h-5.65V38.86z"/>
		<path class="st0" d="M166.86,46.28h6.12l-11.09,25.49h-6.01l3.46-7.96l-6.91-17.53h6.08l2.05,5.62l1.94,5.8l2.09-5.8L166.86,46.28
			z"/>
	</g>
</g>
</svg>
