<?xml version="1.0" encoding="utf-8"?>
<!-- Generator: Adobe Illustrator 26.0.1, SVG Export Plug-In . SVG Version: 6.00 Build 0)  -->
<svg version="1.1" id="Layer_1" xmlns="http://www.w3.org/2000/svg" xmlns:xlink="http://www.w3.org/1999/xlink" x="0px" y="0px"
	 viewBox="30 25 200 55" style="enable-background:new 0 0 200 100;" xml:space="preserve">
<style type="text/css">
	.st0{fill:#FFFFFF;}
	.st1{fill:url(#SVGID_1_);}
	.st2{fill:url(#SVGID_00000016779578829937470410000009232514074134610360_);}
	.st3{fill:url(#SVGID_00000168821219294408717380000012854197849971301248_);}
	.st4{fill:url(#SVGID_00000019637188809928427130000017640881903625459877_);}
	.st5{fill:url(#SVGID_00000095298436334992331100000012199873834360465045_);}
	.st6{fill:#0BB7D3;}
</style>
<g>
	<g>
		<linearGradient id="SVGID_1_" gradientUnits="userSpaceOnUse" x1="38.3294" y1="56.7993" x2="47.8244" y2="36.5434">
			<stop  offset="0.1777" style="stop-color:#0BB7D3"/>
			<stop  offset="0.8364" style="stop-color:#535AA8"/>
		</linearGradient>
		<path class="st1" d="M49.62,46.95c-3.89,0-7.22,0.06-10.54-0.03c-1.41-0.04-2.29,0.37-2.96,1.67c-1.05,2.06-2.29,4.02-3.43,6.03
			h12.55C46.69,52.08,48.1,49.6,49.62,46.95z"/>
		
			<linearGradient id="SVGID_00000014630491801892836680000012423334518973884053_" gradientUnits="userSpaceOnUse" x1="27.0181" y1="32.0523" x2="57.7765" y2="32.0523">
			<stop  offset="0" style="stop-color:#535AA8"/>
			<stop  offset="0.4543" style="stop-color:#4287BC"/>
			<stop  offset="0.823" style="stop-color:#25A9CD"/>
			<stop  offset="0.9963" style="stop-color:#0BB7D3"/>
		</linearGradient>
		<path style="fill:url(#SVGID_00000014630491801892836680000012423334518973884053_);" d="M56.81,26.57
			c-7.32-0.11-14.64-0.07-21.95-0.05c-0.58,0-1.48,0.04-1.7,0.4c-2.05,3.33-3.97,6.72-6.13,10.44c8.09,0,15.63,0.03,23.18-0.03
			c0.63,0,1.15,0.07,1.59,0.28l5.99-10.78C57.44,26.67,57.1,26.57,56.81,26.57z"/>
		
			<linearGradient id="SVGID_00000121253072860595553400000004313047162486653597_" gradientUnits="userSpaceOnUse" x1="27.8885" y1="64.3387" x2="58.2119" y2="64.3387">
			<stop  offset="0" style="stop-color:#535AA8"/>
			<stop  offset="0.4543" style="stop-color:#4287BC"/>
			<stop  offset="0.823" style="stop-color:#25A9CD"/>
			<stop  offset="0.9963" style="stop-color:#0BB7D3"/>
		</linearGradient>
		<path style="fill:url(#SVGID_00000121253072860595553400000004313047162486653597_);" d="M50.92,61.01
			c-2.94,0.11-5.89,0.05-9.32,0.05c0.85-1.49,1.66-2.92,2.47-4.33H31.52c-0.09,0.15-0.18,0.3-0.26,0.45
			c-1.24,2.23-3.36,4.47-3.37,6.72c-0.01,2.15,2.26,4.28,3.37,6.5c0.63,1.26,1.48,1.55,2.78,1.54c7.47-0.05,14.95-0.05,22.42,0
			c0.72,0.01,1.28-0.11,1.75-0.4l-6.4-10.85C51.51,60.88,51.2,61,50.92,61.01z"/>
		
			<linearGradient id="SVGID_00000157298707753401902140000013820468547037426077_" gradientUnits="userSpaceOnUse" x1="51.7863" y1="38.0329" x2="70.881" y2="38.0329">
			<stop  offset="0" style="stop-color:#535AA8"/>
			<stop  offset="0.4543" style="stop-color:#4287BC"/>
			<stop  offset="0.823" style="stop-color:#25A9CD"/>
			<stop  offset="0.9963" style="stop-color:#0BB7D3"/>
		</linearGradient>
		<path style="fill:url(#SVGID_00000157298707753401902140000013820468547037426077_);" d="M70.62,47.95
			c-3.75-6.71-7.59-13.38-11.51-20c-0.26-0.43-0.78-0.86-1.33-1.12l-5.99,10.78c0.47,0.23,0.85,0.61,1.18,1.23
			c1.66,3.08,3.52,6.04,5.17,9.12c0.18,0.34,0.29,0.82,0.31,1.28h12.43C70.89,48.76,70.8,48.28,70.62,47.95z"/>
		
			<linearGradient id="SVGID_00000014594248131528077720000002616832832564746393_" gradientUnits="userSpaceOnUse" x1="51.0214" y1="69.4472" x2="67.0574" y2="49.8243">
			<stop  offset="0" style="stop-color:#535AA8"/>
			<stop  offset="0.4543" style="stop-color:#4287BC"/>
			<stop  offset="0.823" style="stop-color:#25A9CD"/>
			<stop  offset="0.9963" style="stop-color:#0BB7D3"/>
		</linearGradient>
		<path style="fill:url(#SVGID_00000014594248131528077720000002616832832564746393_);" d="M58.45,49.24
			c0.01,0.37-0.04,0.73-0.18,0.99c-1.76,3.28-3.65,6.5-5.59,9.68c-0.18,0.29-0.5,0.58-0.86,0.79l6.4,10.85
			c0.39-0.24,0.73-0.6,1.03-1.15c3.74-6.63,7.61-13.19,11.33-19.83c0.2-0.35,0.3-0.84,0.31-1.34H58.45z"/>
	</g>
	<g>
		<path class="st6" d="M102.44,39.63c1.96,1.03,3.47,2.5,4.54,4.41c1.07,1.91,1.6,4.12,1.6,6.64c0,2.52-0.54,4.73-1.6,6.64
			c-1.07,1.91-2.58,3.38-4.54,4.41s-4.23,1.55-6.82,1.55H85.29v-25.2h10.33C98.21,38.08,100.49,38.6,102.44,39.63z M100.73,56.12
			c1.3-1.34,1.94-3.16,1.94-5.44c0-1.51-0.29-2.83-0.88-3.94c-0.59-1.12-1.42-1.98-2.48-2.59c-1.07-0.61-2.3-0.92-3.69-0.92h-4.43
			v14.9h4.43C97.73,58.13,99.44,57.46,100.73,56.12z"/>
		<path class="st6" d="M130.43,45.5v17.78h-4.9l-0.36-2.12c-1.51,1.66-3.48,2.48-5.9,2.48c-1.66,0-3.13-0.39-4.41-1.17
			c-1.28-0.78-2.29-1.87-3.01-3.28c-0.72-1.4-1.08-3.01-1.08-4.81c0-1.8,0.36-3.4,1.08-4.81c0.72-1.4,1.72-2.5,3.01-3.28
			c1.28-0.78,2.75-1.17,4.41-1.17c1.2,0,2.3,0.21,3.31,0.63c1.01,0.42,1.87,1.03,2.59,1.82l0.36-2.09H130.43z M123.66,57.65
			c0.79-0.83,1.19-1.91,1.19-3.26c0-1.34-0.4-2.43-1.19-3.26s-1.81-1.24-3.06-1.24c-1.25,0-2.26,0.42-3.04,1.26
			c-0.78,0.84-1.17,1.92-1.17,3.24c0,1.32,0.39,2.4,1.17,3.24c0.78,0.84,1.79,1.26,3.04,1.26
			C121.85,58.89,122.87,58.47,123.66,57.65z"/>
		<path class="st6" d="M135.13,42.87c-0.61-0.58-0.92-1.31-0.92-2.2c0-0.91,0.31-1.66,0.94-2.23c0.62-0.58,1.42-0.86,2.38-0.86
			s1.75,0.29,2.38,0.86c0.62,0.58,0.94,1.32,0.94,2.23c0,0.89-0.31,1.62-0.92,2.2c-0.61,0.58-1.41,0.86-2.39,0.86
			S135.74,43.44,135.13,42.87z M134.68,45.5h5.65v17.78h-5.65V45.5z"/>
		<path class="st6" d="M144.58,38.08h5.65v25.2h-5.65V38.08z"/>
		<path class="st6" d="M166.86,45.5h6.12L161.9,70.99h-6.01l3.46-7.96l-6.91-17.53h6.08l2.05,5.62l1.94,5.8l2.09-5.8L166.86,45.5z"
			/>
	</g>
</g>
</svg>
